<?xml version="1.0" standalone="no"?>
<!DOCTYPE svg PUBLIC "-//W3C//DTD SVG 20010904//EN"
 "http://www.w3.org/TR/2001/REC-SVG-20010904/DTD/svg10.dtd">
<svg version="1.0" xmlns="http://www.w3.org/2000/svg"
 width="512.000000pt" height="512.000000pt" viewBox="0 0 512.000000 512.000000"
 preserveAspectRatio="xMidYMid meet">
<metadata>
Created by potrace 1.11, written by Peter Selinger 2001-2013
</metadata>
<g transform="translate(0.000000,512.000000) scale(0.100000,-0.100000)"
fill="#000000" stroke="none">
<path d="M2290 5105 c-231 -25 -452 -80 -666 -165 -179 -70 -242 -107 -279
-162 -28 -43 -33 -45 -86 -50 -71 -7 -94 -19 -237 -127 -570 -432 -939 -1093
-1004 -1797 l-12 -131 28 -57 27 -56 -27 -56 -28 -57 12 -131 c44 -484 240
-966 550 -1356 109 -137 308 -331 449 -437 149 -112 171 -124 242 -131 53 -5
57 -7 87 -51 25 -38 46 -54 122 -93 439 -221 1032 -301 1552 -207 315 56 696
202 761 291 38 54 52 123 36 185 -8 29 -223 411 -561 998 -302 523 -551 953
-553 958 -2 4 176 7 396 7 l400 0 3 -247 c3 -232 4 -251 25 -288 25 -47 74
-96 123 -121 48 -26 181 -26 227 -1 102 55 153 139 153 253 0 56 4 74 18 87
23 21 36 21 56 1 14 -13 16 -56 16 -314 l0 -298 28 -53 c68 -131 243 -158 347
-55 23 23 46 59 53 82 9 30 12 166 12 498 l0 456 159 0 c186 0 252 10 306 48
52 36 95 118 95 183 0 58 -25 257 -46 359 -127 630 -513 1219 -1041 1587 -79
55 -123 72 -183 73 -30 1 -39 7 -65 47 -36 56 -96 91 -275 162 -388 153 -814
211 -1220 166z m456 -145 c242 -20 484 -74 692 -156 201 -79 232 -99 232 -147
0 -25 -83 -187 -96 -187 -2 0 -42 25 -88 55 -149 98 -205 116 -429 140 -78 8
-188 29 -255 47 -101 27 -134 31 -237 31 -104 0 -136 -4 -238 -31 -69 -19
-176 -39 -260 -47 -211 -23 -310 -58 -452 -159 -27 -20 -53 -36 -57 -36 -14 0
-98 161 -98 188 0 37 19 53 105 92 371 169 781 242 1181 210z m24 -399 c63
-17 156 -35 205 -41 283 -35 292 -38 428 -126 95 -62 97 -65 83 -86 -8 -13
-215 -372 -461 -798 -246 -426 -450 -779 -455 -783 -4 -5 -86 128 -183 295
-96 167 -185 315 -197 331 -41 51 -130 21 -130 -44 0 -17 67 -144 184 -346
l184 -318 -926 -3 c-682 -1 -928 1 -933 9 -4 6 -10 57 -14 113 -8 126 5 190
73 341 60 133 72 169 112 310 17 60 43 131 57 157 15 27 78 103 142 171 64 67
148 167 187 222 93 131 141 173 265 235 83 42 104 49 114 38 7 -7 94 -157 195
-333 100 -176 196 -332 211 -347 35 -33 57 -35 93 -7 45 36 37 70 -63 241 -48
84 -138 239 -199 345 l-111 192 72 51 c134 95 180 109 440 139 55 6 151 24
215 40 65 16 128 32 142 34 48 10 156 -3 270 -32z m-1454 -2 c13 -11 107 -170
102 -173 -2 -2 -46 -24 -98 -49 -138 -68 -194 -116 -308 -269 -55 -73 -149
-186 -209 -249 -63 -68 -122 -141 -140 -175 -17 -33 -52 -127 -77 -211 -26
-84 -69 -203 -97 -265 -77 -170 -93 -245 -86 -400 l6 -128 -104 0 c-100 0
-104 1 -124 27 -25 30 -23 74 10 278 83 514 326 977 707 1347 113 109 300 260
347 278 21 9 52 4 71 -11z m2642 -36 c178 -126 394 -335 519 -503 281 -376
442 -791 488 -1260 5 -58 4 -69 -15 -93 -21 -26 -24 -27 -125 -27 l-104 0 6
128 c7 155 -9 231 -87 402 -28 63 -69 176 -91 250 -59 202 -89 256 -225 401
-64 68 -147 167 -185 220 -37 52 -87 116 -109 142 -49 55 -152 126 -247 168
-37 17 -69 32 -71 34 -9 8 98 172 119 182 32 16 51 10 127 -44z m-216 -324
c117 -59 180 -116 273 -249 33 -47 105 -133 161 -191 156 -163 169 -186 228
-393 20 -70 57 -173 83 -229 86 -193 98 -249 86 -402 l-8 -90 -35 -3 c-57 -4
-79 -11 -100 -32 -19 -19 -20 -36 -20 -529 l0 -510 -26 -20 c-35 -27 -59 -26
-89 4 l-25 24 0 301 c0 276 -2 304 -19 338 -24 47 -56 77 -103 97 -70 29 -152
11 -208 -45 -42 -42 -60 -95 -60 -174 0 -68 -19 -110 -60 -131 -37 -19 -73
-19 -110 0 -55 29 -60 52 -60 294 l0 220 299 3 c278 3 300 4 320 22 29 26 29
86 0 112 -20 18 -50 19 -795 22 l-775 2 25 43 c13 23 216 375 451 782 452 783
453 785 460 785 3 0 51 -23 107 -51z m-3339 -1846 c-7 -156 9 -231 86 -401 28
-62 71 -181 97 -265 25 -84 60 -179 77 -211 19 -35 75 -106 138 -172 59 -61
152 -173 208 -248 117 -156 169 -202 310 -272 53 -26 98 -48 99 -50 10 -7 -98
-171 -120 -182 -36 -17 -57 -7 -179 85 -489 368 -830 932 -928 1535 -33 207
-35 251 -10 281 20 26 24 27 124 27 l104 0 -6 -127z m2009 95 c-11 -18 -217
-375 -457 -793 -241 -418 -444 -766 -450 -774 -11 -11 -30 -4 -113 38 -126 65
-175 108 -265 234 -40 56 -125 158 -190 226 -134 143 -159 185 -207 358 -30
110 -56 178 -120 318 -50 111 -62 180 -54 312 l7 113 934 0 935 0 -20 -32z
m613 -838 c246 -426 453 -785 461 -797 13 -21 11 -24 -62 -73 -141 -96 -189
-112 -379 -130 -60 -6 -177 -27 -260 -46 -194 -47 -246 -47 -441 0 -83 20
-160 36 -171 36 -25 0 -61 -34 -69 -66 -9 -33 23 -76 62 -86 16 -4 88 -22 159
-40 180 -45 307 -45 478 1 68 18 176 38 260 46 211 23 310 58 452 159 27 20
53 36 57 36 14 0 98 -158 98 -187 0 -40 -20 -56 -136 -107 -618 -270 -1325
-270 -1939 1 -116 51 -135 66 -135 105 0 26 84 188 97 188 3 0 42 -25 87 -55
150 -99 217 -118 255 -69 42 53 24 92 -62 135 -34 18 -94 54 -134 80 l-72 49
56 97 c82 143 789 1366 836 1446 22 38 43 65 47 60 5 -4 209 -357 455 -783z"/>
<path d="M2162 4480 c-328 -118 -331 -578 -5 -700 82 -31 205 -26 285 12 223
104 284 397 121 579 -26 28 -63 62 -83 74 -87 55 -222 70 -318 35z"/>
<path d="M2994 4411 c-85 -39 -146 -150 -129 -238 33 -180 234 -251 369 -131
84 73 100 188 40 285 -56 90 -182 128 -280 84z m134 -148 c32 -27 37 -64 12
-96 -41 -52 -120 -27 -120 38 0 64 62 97 108 58z"/>
<path d="M1353 4046 c-60 -19 -99 -51 -130 -104 -23 -39 -28 -59 -28 -112 1
-40 7 -76 17 -95 91 -170 330 -164 409 10 77 167 -93 358 -268 301z m112 -166
c26 -29 24 -79 -4 -102 -47 -38 -114 -8 -114 50 0 42 28 72 68 72 19 0 39 -8
50 -20z"/>
<path d="M2510 3601 c-74 -23 -117 -61 -149 -131 -36 -79 -23 -161 38 -231 84
-99 225 -106 320 -16 91 87 95 220 9 313 -56 61 -145 87 -218 65z m120 -190
c23 -58 -36 -116 -93 -90 -33 15 -49 58 -33 90 27 55 103 55 126 0z"/>
<path d="M1541 3474 c-92 -33 -167 -100 -214 -189 -29 -56 -32 -67 -32 -160 0
-93 2 -105 32 -166 39 -79 102 -140 181 -177 49 -23 70 -27 152 -27 82 0 103
4 152 27 79 37 142 98 181 177 30 61 32 73 32 166 0 121 -18 168 -96 250 -75
80 -140 108 -253 112 -65 2 -104 -1 -135 -13z"/>
<path d="M805 3132 c-81 -39 -125 -112 -125 -207 0 -69 25 -120 81 -168 84
-73 198 -71 283 4 112 99 100 273 -25 356 -55 36 -154 43 -214 15z m142 -154
c46 -43 16 -118 -47 -118 -62 0 -92 71 -48 117 27 29 65 29 95 1z"/>
<path d="M3700 3980 c-183 -32 -247 -264 -106 -387 99 -88 258 -65 333 48 32
48 42 136 23 194 -33 99 -143 163 -250 145z m87 -172 c29 -27 29 -57 2 -92
-40 -50 -119 -21 -119 44 0 62 71 92 117 48z"/>
<path d="M3878 3457 c-103 -39 -182 -110 -227 -206 -22 -48 -26 -69 -26 -151
0 -82 4 -103 27 -152 34 -74 107 -146 183 -184 54 -26 70 -29 155 -29 82 0
103 4 152 27 288 135 294 536 11 674 -47 23 -73 29 -147 31 -59 2 -104 -2
-128 -10z"/>
<path d="M3163 3189 c-78 -38 -123 -111 -123 -199 0 -239 315 -308 424 -93 22
43 20 137 -3 188 -20 45 -69 91 -118 112 -49 20 -131 16 -180 -8z m144 -151
c46 -43 16 -118 -47 -118 -62 0 -92 71 -48 117 27 29 65 29 95 1z"/>
<path d="M1686 2438 c-53 -14 -131 -91 -145 -143 -25 -91 -4 -171 60 -232 95
-90 236 -83 321 16 105 123 55 302 -99 357 -44 15 -83 16 -137 2z m116 -165
c18 -16 24 -68 10 -89 -14 -21 -52 -34 -77 -28 -53 13 -69 79 -29 118 20 21
73 20 96 -1z"/>
<path d="M888 2329 c-20 -6 -55 -27 -78 -47 -184 -157 -21 -450 211 -381 133
40 197 206 124 325 -54 87 -161 130 -257 103z m114 -166 c28 -25 24 -77 -9
-103 -32 -25 -69 -20 -96 13 -22 25 -16 75 10 95 24 17 73 15 95 -5z"/>
<path d="M1294 1942 c-173 -62 -280 -244 -244 -419 25 -119 100 -217 208 -270
51 -25 68 -28 157 -28 88 0 107 3 157 27 235 110 289 418 106 601 -70 70 -142
100 -248 104 -63 3 -98 -1 -136 -15z"/>
<path d="M2475 2021 c-112 -52 -163 -182 -114 -291 25 -56 53 -86 101 -111
141 -72 309 18 325 176 17 168 -160 297 -312 226z m142 -154 c42 -42 9 -117
-51 -117 -33 0 -57 18 -69 53 -9 23 17 74 40 80 24 7 65 -2 80 -16z"/>
<path d="M2225 1473 c-103 -37 -180 -110 -228 -213 -16 -35 -21 -66 -21 -140
-1 -82 3 -102 26 -152 35 -76 94 -138 170 -179 60 -33 68 -34 168 -34 94 0
111 3 160 27 109 54 195 169 209 280 21 170 -64 325 -217 396 -75 34 -194 41
-267 15z"/>
<path d="M2955 1174 c-143 -78 -174 -241 -68 -355 49 -53 91 -71 162 -71 86 0
163 49 201 128 31 63 25 155 -13 213 -44 66 -97 95 -181 99 -51 2 -79 -2 -101
-14z m144 -160 c12 -15 21 -34 21 -44 0 -10 -9 -29 -21 -44 -41 -53 -119 -21
-119 48 0 64 79 90 119 40z"/>
</g>
</svg>
